<?xml version="1.0" standalone="no"?>
<!DOCTYPE svg PUBLIC "-//W3C//DTD SVG 20010904//EN"
 "http://www.w3.org/TR/2001/REC-SVG-20010904/DTD/svg10.dtd">
<svg version="1.0" xmlns="http://www.w3.org/2000/svg"
 width="512.000000pt" height="512.000000pt" viewBox="0 0 512.000000 512.000000"
 preserveAspectRatio="xMidYMid meet">
<metadata>
Created by potrace 1.14, written by Peter Selinger 2001-2017
</metadata>
<g transform="translate(0.000000,512.000000) scale(0.100000,-0.100000)"
fill="#000000" stroke="none">
<path d="M2398 5115 c-2 -2 -40 -6 -84 -9 -45 -4 -93 -9 -105 -11 -13 -2 -46
-6 -74 -10 -179 -22 -286 -39 -450 -72 -71 -14 -137 -27 -145 -28 -8 -1 -40
-7 -70 -13 -30 -7 -64 -14 -75 -16 -144 -28 -397 -91 -419 -104 -39 -23 -65
-60 -71 -102 -5 -33 6 -80 60 -265 8 -27 69 -239 135 -470 141 -490 145 -506
176 -607 13 -43 26 -88 28 -100 3 -13 16 -61 31 -108 33 -110 45 -160 36 -160
-13 0 -155 -124 -234 -204 -293 -297 -475 -657 -554 -1096 -22 -125 -27 -787
-6 -884 76 -358 455 -649 1018 -781 96 -22 121 -27 210 -40 22 -3 49 -7 60
-10 98 -20 544 -27 725 -12 52 5 97 10 100 12 3 1 34 6 69 9 150 16 613 128
648 158 7 6 13 8 13 5 0 -9 227 86 332 139 335 168 594 401 722 649 17 33 31
62 32 65 0 3 3 12 6 20 13 34 29 98 38 145 9 51 6 379 -4 450 -25 171 -74 358
-131 500 -41 102 -130 283 -151 306 -8 8 -14 19 -14 23 0 12 -108 164 -170
241 -66 81 -215 225 -272 262 -43 29 -43 30 -24 93 8 25 16 66 20 90 3 25 8
67 12 94 12 94 14 142 18 421 4 302 -1 364 -41 505 -24 85 -97 234 -160 328
-64 94 -205 243 -298 314 -177 134 -393 234 -568 263 -64 10 -360 18 -369 10z"/>
</g>
</svg>
